<!DOCTYPE svg PUBLIC "-//W3C//DTD SVG 1.1//EN" "http://www.w3.org/Graphics/SVG/1.1/DTD/svg11.dtd">
                <svg xmlns="http://www.w3.org/2000/svg" xmlns:xlink="http://www.w3.org/1999/xlink" 
                width="577" height="766">
                
            <g>
                <rect x="50" y="80"
            width="284" height="30"
            style="fill:#a5d6a7; stroke:#444; stroke-width:1" />
                    
                <line x1="60" y1="80" x2="60" y2="110"
                style="fill:#a5d6a7; stroke:#444; stroke-width:1" />
                <line x1="324" y1="80" x2="324" y2="110"
                style="fill:#a5d6a7; stroke:#444; stroke-width:1" />
             
                <title>function sampleTransaction(tx)</title>
            <text x="75" y="100"
                font-family="monospace" font-size="13" fill="#222">
                <tspan x="75" y="100">function sampleTransaction(tx)</tspan>
            </text>
                
            </g>
                <g>
                   <rect x="87" y="128.5"
            width="256.2" height="30"
            rx="3" ry="3"
            style="fill:#90caf9; stroke:#444; stroke-width:1" />
                   <title>var oldValue = tx.asset.value</title>
            <text x="102" y="148.5"
                font-family="monospace" font-size="13" fill="#222">
                <tspan x="102" y="148.5">var oldValue = tx.asset.value</tspan>
            </text>
                   
                   
                </g>
                <g>
                   <rect x="87" y="177"
            width="248.4" height="30"
            rx="3" ry="3"
            style="fill:#90caf9; stroke:#444; stroke-width:1" />
                   <title>tx.asset.value = tx.newValue</title>
            <text x="102" y="197"
                font-family="monospace" font-size="13" fill="#222">
                <tspan x="102" y="197">tx.asset.value = tx.newValue</tspan>
            </text>
                   
                   
                </g>
            <g>
                <rect x="87" y="225.5"
            width="443.4" height="30"
            rx="3" ry="3"
            style="fill:#90caf9; stroke:#444; stroke-width:1" />
                
                <line x1="530.4" y1="235.5" x2="535.4" y2="235.5"
                style="fill:#a5d6a7; stroke:#444; stroke-width:1" />
                
                <line x1="530.4" y1="245.5" x2="535.4" y2="245.5"
                style="fill:#a5d6a7; stroke:#444; stroke-width:1" />

                <path d="M535.4, 229.5 L551.4, 240.5 L535.4, 251.5 Z" 
        fill="#a5d6a7" stroke="#444" stroke-width="1" />
                             
                <title>return getAssetRegistry(&apos;org.acme.sample.SampleAsset&apos;).then(function (assetRegistry) {
  // Update the asset in the asset registry.
  return assetRegistry.update(tx.asset);
}).then(function () {
  // Emit an event for the modified asset.
  var event = getFactory().newEvent(&apos;org.acme.sample&apos;, &apos;SampleEvent&apos;);
  event.asset = tx.asset;
  event.oldValue = oldValue;
  event.newValue = tx.newValue;
  emit(event);
})</title>
            <text x="102" y="245.5"
                font-family="monospace" font-size="13" fill="#222">
                <tspan x="102" y="245.5">return getAssetRegistry(&apos;org.acme.sample.SampleAss...</tspan>
            </text>
                
            </g>
                <g>
                   <rect x="124" y="274"
            width="396.59999999999997" height="30"
            rx="2" ry="2"
            style="fill:#C5E1A5; stroke:#444; stroke-width:1" />
                   <title>getAssetRegistry(&apos;org.acme.sample.SampleAsset&apos;)</title>
            <text x="139" y="294"
                font-family="monospace" font-size="13" fill="#222">
                <tspan x="139" y="294">getAssetRegistry(&apos;org.acme.sample.SampleAsset&apos;)</tspan>
            </text>
                   
                   
                </g>
                <g>
                   <rect x="124" y="322.5"
            width="108" height="30"
            rx="2" ry="2"
            style="fill:#C5E1A5; stroke:#444; stroke-width:1" />
                   <title>.then(*())</title>
            <text x="139" y="342.5"
                font-family="monospace" font-size="13" fill="#222">
                <tspan x="139" y="342.5">.then(*())</tspan>
            </text>
                   <circle cx="130" cy="346.5" r="4"
        style="fill:#ede7f6; stroke:#444; stroke-width:1" />
                   
                </g>
            <g>
                <rect x="161" y="371"
            width="229.4" height="30"
            style="fill:#a5d6a7; stroke:#444; stroke-width:1" />
                    
                <line x1="171" y1="371" x2="171" y2="401"
                style="fill:#a5d6a7; stroke:#444; stroke-width:1" />
                <line x1="380.4" y1="371" x2="380.4" y2="401"
                style="fill:#a5d6a7; stroke:#444; stroke-width:1" />
             
                <title>function(assetRegistry)</title>
            <text x="186" y="391"
                font-family="monospace" font-size="13" fill="#222">
                <tspan x="186" y="391">function(assetRegistry)</tspan>
            </text>
                
            </g>
            <g>
                <rect x="198" y="419.5"
            width="318.59999999999997" height="30"
            rx="3" ry="3"
            style="fill:#90caf9; stroke:#444; stroke-width:1" />
                
                <line x1="516.5999999999999" y1="429.5" x2="521.5999999999999" y2="429.5"
                style="fill:#a5d6a7; stroke:#444; stroke-width:1" />
                
                <line x1="516.5999999999999" y1="439.5" x2="521.5999999999999" y2="439.5"
                style="fill:#a5d6a7; stroke:#444; stroke-width:1" />

                <path d="M521.5999999999999, 423.5 L537.5999999999999, 434.5 L521.5999999999999, 445.5 Z" 
        fill="#a5d6a7" stroke="#444" stroke-width="1" />
                             
                <title>return assetRegistry.update(tx.asset)</title>
            <text x="213" y="439.5"
                font-family="monospace" font-size="13" fill="#222">
                <tspan x="213" y="439.5">return assetRegistry.update(tx.asset)</tspan>
            </text>
                
            </g>
            <g>
                <rect x="124" y="468"
            width="128" height="30"
            style="fill:#a5d6a7; stroke:#444; stroke-width:1" />
                    
                <line x1="134" y1="468" x2="134" y2="498"
                style="fill:#a5d6a7; stroke:#444; stroke-width:1" />
                <line x1="242" y1="468" x2="242" y2="498"
                style="fill:#a5d6a7; stroke:#444; stroke-width:1" />
             
                <title>function()</title>
            <text x="149" y="488"
                font-family="monospace" font-size="13" fill="#222">
                <tspan x="149" y="488">function()</tspan>
            </text>
                
            </g>
                <g>
                   <rect x="161" y="516.5"
            width="240.6" height="30"
            rx="3" ry="3"
            style="fill:#90caf9; stroke:#444; stroke-width:1" />
                   <title>var event = [object Object]</title>
            <text x="176" y="536.5"
                font-family="monospace" font-size="13" fill="#222">
                <tspan x="176" y="536.5">var event = [object Object]</tspan>
            </text>
                   
                   
                </g>
                <g>
                   <rect x="161" y="565"
            width="201.6" height="30"
            rx="3" ry="3"
            style="fill:#90caf9; stroke:#444; stroke-width:1" />
                   <title>event.asset = tx.asset</title>
            <text x="176" y="585"
                font-family="monospace" font-size="13" fill="#222">
                <tspan x="176" y="585">event.asset = tx.asset</tspan>
            </text>
                   
                   
                </g>
                <g>
                   <rect x="161" y="613.5"
            width="225" height="30"
            rx="3" ry="3"
            style="fill:#90caf9; stroke:#444; stroke-width:1" />
                   <title>event.oldValue = oldValue</title>
            <text x="176" y="633.5"
                font-family="monospace" font-size="13" fill="#222">
                <tspan x="176" y="633.5">event.oldValue = oldValue</tspan>
            </text>
                   
                   
                </g>
                <g>
                   <rect x="161" y="662"
            width="248.4" height="30"
            rx="3" ry="3"
            style="fill:#90caf9; stroke:#444; stroke-width:1" />
                   <title>event.newValue = tx.newValue</title>
            <text x="176" y="682"
                font-family="monospace" font-size="13" fill="#222">
                <tspan x="176" y="682">event.newValue = tx.newValue</tspan>
            </text>
                   
                   
                </g>
                <g>
                   <rect x="161" y="710.5"
            width="115.8" height="30"
            rx="2" ry="2"
            style="fill:#C5E1A5; stroke:#444; stroke-width:1" />
                   <title>emit(event)</title>
            <text x="176" y="730.5"
                font-family="monospace" font-size="13" fill="#222">
                <tspan x="176" y="730.5">emit(event)</tspan>
            </text>
                   
                   
                </g>
            <g>
               <rect x="25" y="13.75"
            width="216.6" height="24"
            style="fill:#fff59d; stroke:#444; stroke-width:1" />
               <circle cx="25" cy="25" r="15"
        style="fill:#fff59d; stroke:#444; stroke-width:1" />
               <title>Program: source module</title>
            <text x="55" y="30"
                font-family="monospace" font-size="13" fill="#222">
                <tspan x="55" y="30">Program: source module</tspan>
            </text>
            </g>
            <g>
               <path d="M25, 40 L25 91 Q25 95
                29 95
                L42 95 "
        style="fill:none; stroke:#444; stroke-width:1" />
               <path d="M42, 92 L50, 95 L42, 98 Z" 
        fill="#333" />
            </g>
            <g>
               <path d="M68.5, 110 L68.5 139.5 Q68.5 143.5
                72.5 143.5
                L79 143.5 "
        style="fill:none; stroke:#444; stroke-width:1" />
               <path d="M79, 140.5 L87, 143.5 L79, 146.5 Z" 
        fill="#333" />
            </g>
            <g>
               <path d="M68.5, 110 L68.5 188 Q68.5 192
                72.5 192
                L79 192 "
        style="fill:none; stroke:#444; stroke-width:1" />
               <path d="M79, 189 L87, 192 L79, 195 Z" 
        fill="#333" />
            </g>
            <g>
               <path d="M68.5, 110 L68.5 236.5 Q68.5 240.5
                72.5 240.5
                L79 240.5 "
        style="fill:none; stroke:#444; stroke-width:1" />
               <path d="M79, 237.5 L87, 240.5 L79, 243.5 Z" 
        fill="#333" />
            </g>
            <g>
               <path d="M105.5, 255.5 L105.5 285 Q105.5 289
                109.5 289
                L116 289 "
        style="fill:none; stroke:#444; stroke-width:1" />
               <path d="M116, 286 L124, 289 L116, 292 Z" 
        fill="#333" />
            </g>
            <g>
               <path d="M105.5, 255.5 L105.5 333.5 Q105.5 337.5
                109.5 337.5
                L116 337.5 "
        style="fill:none; stroke:#444; stroke-width:1" />
               <path d="M116, 334.5 L124, 337.5 L116, 340.5 Z" 
        fill="#333" />
            </g>
            <g>
               <path d="M142.5, 352.5 L142.5 382 Q142.5 386
                146.5 386
                L161 386 "
        style="fill:none; stroke:#444; stroke-width:1" />
               false
            </g>
            <g>
               <path d="M179.5, 401 L179.5 430.5 Q179.5 434.5
                183.5 434.5
                L190 434.5 "
        style="fill:none; stroke:#444; stroke-width:1" />
               <path d="M190, 431.5 L198, 434.5 L190, 437.5 Z" 
        fill="#333" />
            </g>
            <g>
               <path d="M105.5, 255.5 L105.5 479 Q105.5 483
                109.5 483
                L116 483 "
        style="fill:none; stroke:#444; stroke-width:1" />
               <path d="M116, 480 L124, 483 L116, 486 Z" 
        fill="#333" />
            </g>
            <g>
               <path d="M142.5, 498 L142.5 527.5 Q142.5 531.5
                146.5 531.5
                L153 531.5 "
        style="fill:none; stroke:#444; stroke-width:1" />
               <path d="M153, 528.5 L161, 531.5 L153, 534.5 Z" 
        fill="#333" />
            </g>
            <g>
               <path d="M142.5, 498 L142.5 576 Q142.5 580
                146.5 580
                L153 580 "
        style="fill:none; stroke:#444; stroke-width:1" />
               <path d="M153, 577 L161, 580 L153, 583 Z" 
        fill="#333" />
            </g>
            <g>
               <path d="M142.5, 498 L142.5 624.5 Q142.5 628.5
                146.5 628.5
                L153 628.5 "
        style="fill:none; stroke:#444; stroke-width:1" />
               <path d="M153, 625.5 L161, 628.5 L153, 631.5 Z" 
        fill="#333" />
            </g>
            <g>
               <path d="M142.5, 498 L142.5 673 Q142.5 677
                146.5 677
                L153 677 "
        style="fill:none; stroke:#444; stroke-width:1" />
               <path d="M153, 674 L161, 677 L153, 680 Z" 
        fill="#333" />
            </g>
            <g>
               <path d="M142.5, 498 L142.5 721.5 Q142.5 725.5
                146.5 725.5
                L153 725.5 "
        style="fill:none; stroke:#444; stroke-width:1" />
               <path d="M153, 722.5 L161, 725.5 L153, 728.5 Z" 
        fill="#333" />
            </g>
            </svg>